<?xml version="1.0" encoding="utf-8"?>
<!-- Generator: Adobe Illustrator 22.0.0, SVG Export Plug-In . SVG Version: 6.00 Build 0)  -->
<svg version="1.1" id="Capa_1" xmlns="http://www.w3.org/2000/svg" xmlns:xlink="http://www.w3.org/1999/xlink" x="0px" y="0px"
	 viewBox="0 0 51.1 40.1" style="enable-background:new 0 0 51.1 40.1;" xml:space="preserve">
<style type="text/css">
	.st0{fill:#8E9091;}
</style>
<path class="st0" d="M24.9,0C13.3,0,4,8.7,4,19.3c0,9,6.8,16.8,16.4,18.7c0.5,0.1,0.9-0.2,1-0.6c0-0.1,0-0.1,0-0.2v-4.4
	c0-0.4-0.4-0.8-0.9-0.8h-1.7c-2.2,0-3.7-1.9-5-3.6L13.4,28c0.6,0.3,1.1,0.6,1.7,1c1,0.8,2.2,1.3,3.6,1.4c1.3,0.2,2.5-0.7,2.7-1.9
	c0-0.2,0-0.3,0-0.5v-0.6c0-0.4-0.3-0.7-0.6-0.8c-4.8-1.3-8.1-4.6-8.1-8.3c0-2,0.9-3.9,2.5-5.3c0.3-0.2,0.3-0.6,0.2-0.9
	c-0.6-1.3-0.5-2.8,0.3-4.1c1.2,0.5,2.3,1.2,3.2,2.1c0.2,0.3,0.6,0.4,1,0.2c3.3-1.1,7-1.1,10.3,0c0.3,0.1,0.7,0,1-0.2
	c0.9-0.9,2-1.6,3.2-2.1c0.8,1.2,0.9,2.8,0.3,4.1c-0.2,0.3-0.1,0.7,0.2,0.9c1.6,1.4,2.5,3.3,2.5,5.3c0,3.9-3.6,7.4-8.8,8.5
	c-0.5,0.1-0.8,0.5-0.7,1c0,0.1,0,0.1,0.1,0.2c0.5,1,0.7,2.1,0.6,3.2v6c0,0.4,0.4,0.8,0.9,0.8c0.1,0,0.1,0,0.2,0
	c11.3-2.3,18.4-12.6,15.8-23C43.2,6.3,34.7,0,24.9,0z"/>
</svg>
